<?xml version="1.0" encoding="UTF-8" standalone="no"?>
<!-- Created with Inkscape (http://www.inkscape.org/) -->

<svg
   width="180"
   height="180"
   viewBox="0 0 180 180"
   version="1.1"
   id="svg1"
   xml:space="preserve"
   xmlns="http://www.w3.org/2000/svg"
   xmlns:svg="http://www.w3.org/2000/svg"><defs
     id="defs1" /><g
     id="layer1"><path
       style="display:inline;fill:#003380;fill-opacity:1;stroke:#000000;stroke-width:3.75;stroke-dasharray:none;stroke-opacity:1"
       d="M 35,5 C 10,5 10,30 10,30 v 120 c 0,25 25,25 25,25 h 130 c 5,0 5,-5 5,-5 0,-5 -5,-5 -5,-5 v -20 c 5,0 5,-5 5,-5 V 10 c 0,-5 -5,-5 -5,-5 z"
       id="path1" /><path
       style="display:inline;fill:#ffffff;fill-opacity:1;stroke:#000000;stroke-width:3.75;stroke-dasharray:none;stroke-opacity:1"
       d="M 157,165 V 145 H 35 c -15,0 -15,9 -15,10 0,1 0,10 15,10 z"
       id="path2" /><path
       style="font-weight:bold;font-size:64px;line-height:1;text-align:center;text-orientation:sideways;text-anchor:middle;white-space:pre;fill:#ffffff;stroke-width:3.75"
       d="m 39.312013,55.232012 h -9.664 V 6.5920117 h 9.664 z m 41.664022,-17.536 q 0,8.704 -4.608,13.44 -4.544,4.736 -12.416,4.736 -4.928,0 -8.768,-2.112 -3.776,-2.112 -5.952,-6.144 -2.176,-4.096 -2.176,-9.92 0,-8.704 4.544,-13.376 4.608,-4.672 12.544,-4.672 4.928,0 8.704,2.112 3.776,2.048 5.952,6.08 2.176,4.032 2.176,9.856 z m -24.064,0 q 0,5.12 1.664,8 1.664,2.816 5.504,2.816 3.712,0 5.376,-2.816 1.664,-2.88 1.664,-8 0,-5.184 -1.664,-7.936 -1.664,-2.752 -5.44,-2.752 -3.776,0 -5.44,2.752 -1.664,2.752 -1.664,7.936 z m 43.455995,-18.048 q 3.584,0 6.016,1.408 2.496,1.344 4.096,3.648 h 0.32 l 0.832,-4.416 h 8.192 v 35.2 q 0,7.424 -4.288,11.264 -4.288,3.84 -13.248,3.84 -4.031995,0 -7.231995,-0.512 -3.2,-0.448 -6.016,-1.6 v -8.192 q 2.944,1.28 5.952,1.984 3.008,0.704 6.975995,0.704 3.968,0 6.08,-1.856 2.112,-1.856 2.112,-5.12 v -0.96 q 0,-0.768 0.064,-2.048 0.128,-1.28 0.256,-2.24 h -0.32 q -1.472,2.304 -3.904,3.712 -2.368,1.408 -5.952,1.408 -6.079995,0 -9.663995,-4.672 -3.584,-4.672 -3.584,-13.376 0,-8.704 3.648,-13.44 3.648,-4.736 9.663995,-4.736 z m 3.136,7.616 q -3.2,0 -4.927995,2.752 -1.664,2.752 -1.664,7.936 0,10.368 6.783995,10.368 3.84,0 5.44,-2.24 1.664,-2.24 1.664,-6.976 v -1.408 q 0,-5.248 -1.664,-7.808 -1.6,-2.624 -5.632,-2.624 z m 30.08,10.816 q 0,-3.2 1.152,-5.376 1.152,-2.24 4.416,-4.544 2.304,-1.6 3.456,-2.752 1.152,-1.152 1.536,-2.176 0.448,-1.088 0.448,-2.368 0,-1.984 -1.536,-3.072 -1.472,-1.088 -4.096,-1.088 -2.688,0 -5.376,0.832 -2.624,0.832 -5.376,2.24 l -3.392,-6.976 q 3.136,-1.728 6.784,-2.8160003 3.648,-1.088 8,-1.088 6.72,0 10.368,3.0720003 3.712,3.072 3.712,8.256 0,3.904 -1.856,6.592 -1.856,2.688 -5.632,5.376 -1.984,1.408 -3.072,2.496 -1.088,1.024 -1.536,1.984 -0.384,0.96 -0.384,2.304 v 1.408 h -7.616 z m -1.344,12.672 q 0,-2.944 1.6,-4.16 1.6,-1.216 3.968,-1.216 2.176,0 3.776,1.216 1.664,1.216 1.664,4.16 0,2.816 -1.664,4.096 -1.6,1.216 -3.776,1.216 -2.368,0 -3.968,-1.216 -1.6,-1.28 -1.6,-4.096 z"
       id="text3"
       transform="translate(4.6975089,42.027774)"
       aria-label="log?" /></g></svg>
